<svg width="145" height="148" viewBox="0 0 145 148" fill="none" xmlns="http://www.w3.org/2000/svg">
<path d="M68 4.59808C70.7846 2.99038 74.2154 2.99038 77 4.59808L130.787 35.6519C133.571 37.2596 135.287 40.2308 135.287 43.4462V105.554C135.287 108.769 133.571 111.74 130.787 113.348L77 144.402C74.2154 146.01 70.7846 146.01 68 144.402L14.2132 113.348C11.4285 111.74 9.71316 108.769 9.71316 105.554V43.4462C9.71316 40.2308 11.4285 37.2596 14.2132 35.6519L68 4.59808Z" fill="white"/>
<path fill-rule="evenodd" clip-rule="evenodd" d="M68.3604 1.24312C71.2314 -0.414373 74.7686 -0.414374 77.6396 1.24312L133.36 33.414C136.231 35.0717 138 38.135 138 41.4501V105.79C138 109.105 136.231 112.169 133.36 113.827L77.6396 145.997C74.7686 147.655 71.2314 147.655 68.3604 145.997L12.6396 113.827C9.76852 112.169 8 109.105 8 105.79V41.4501C8.00003 38.135 9.76869 35.0717 12.6396 33.414L68.3604 1.24312ZM131.501 40.6826C131.55 40.7891 131.598 40.8964 131.644 41.0048C120.284 33.7719 106.799 29.581 92.335 29.581C75.0974 29.5811 59.2502 35.533 46.7354 45.4931C47.985 47.4726 48.709 49.818 48.709 52.332C48.7088 59.4163 42.9661 65.159 35.8818 65.1591C33.8716 65.1591 31.969 64.6963 30.2754 63.872C23.1647 75.1652 19.0508 88.5351 19.0508 102.866C19.0508 105.444 19.1845 107.992 19.4443 110.502L41.5098 123.241C40.1537 118.304 39.4297 113.104 39.4297 107.736C39.4298 75.479 65.5797 49.3291 97.8369 49.3291C110.755 49.3291 122.693 53.5231 132.364 60.623V44.5888C132.364 43.2162 132.06 41.887 131.501 40.6826ZM90.583 70.416C86.298 70.416 82.7348 71.2075 79.8936 72.791C77.0989 74.3746 74.9791 76.5875 73.5352 79.4287C72.0912 82.2699 71.299 85.5777 71.1592 89.3505C71.1126 91.3533 71.0898 93.4496 71.0898 95.6386C71.0898 97.8277 71.1126 99.8774 71.1592 101.787C71.2989 105.56 72.0913 108.868 73.5352 111.709C74.9791 114.55 77.0989 116.763 79.8936 118.347C82.7348 119.93 86.2979 120.723 90.583 120.723C93.797 120.723 96.6159 120.28 99.0381 119.394C101.46 118.51 103.462 117.322 105.046 115.832C106.676 114.341 107.912 112.688 108.75 110.871C109.588 109.008 110.053 107.098 110.146 105.142C110.193 104.722 110.054 104.373 109.728 104.094C109.448 103.814 109.099 103.674 108.68 103.674H104.837C104.418 103.674 104.045 103.791 103.719 104.023C103.439 104.256 103.23 104.676 103.09 105.281C102.298 108.914 100.807 111.407 98.6182 112.758C96.4756 114.108 93.774 114.783 90.5137 114.783C86.7873 114.783 83.8289 113.735 81.6396 111.639C79.4507 109.496 78.2625 106.096 78.0762 101.438C77.9364 97.4326 77.9364 93.5197 78.0762 89.7001C78.2625 85.0421 79.4504 81.6644 81.6396 79.5683C83.8289 77.4257 86.7874 76.3544 90.5137 76.3544C93.774 76.3545 96.4756 77.0301 98.6182 78.3808C100.807 79.7316 102.298 82.2241 103.09 85.8574C103.23 86.4628 103.439 86.8823 103.719 87.1152C104.045 87.348 104.418 87.4648 104.837 87.4648H108.68C109.099 87.4648 109.448 87.3243 109.728 87.0449C110.054 86.7654 110.193 86.4162 110.146 85.997C110.053 84.0407 109.588 82.1535 108.75 80.3369C107.912 78.4738 106.676 76.7971 105.046 75.3066C103.462 73.8163 101.46 72.6281 99.0381 71.7431C96.6159 70.8581 93.797 70.416 90.583 70.416ZM77.9131 7.7939C75.042 6.1363 71.5039 6.1363 68.6328 7.7939L18.8223 36.5527C15.9512 38.2103 14.1817 41.2736 14.1816 44.5888V85.0459C16.324 75.7602 20.0845 67.0935 25.1484 59.3574C23.8247 57.3392 23.0538 54.9258 23.0537 52.332C23.0537 45.2474 28.7973 39.5039 35.8818 39.5039C38.0109 39.5039 40.0189 40.0234 41.7861 40.9414C55.5284 29.8024 73.0375 23.1279 92.1055 23.1279C97.1285 23.1279 102.043 23.5916 106.81 24.4775L77.9131 7.7939Z" fill="#0C0C10"/>
</svg>
